<svg width="150" height="150" viewBox="0 0 150 150" fill="none" xmlns="http://www.w3.org/2000/svg">
<path fill-rule="evenodd" clip-rule="evenodd" d="M75 150C116.421 150 150 116.421 150 75C150 33.5786 116.421 0 75 0C33.5786 0 0 33.5786 0 75C0 116.421 33.5786 150 75 150ZM75 137.5C109.518 137.5 137.5 109.518 137.5 75C137.5 40.4822 109.518 12.5 75 12.5C40.4822 12.5 12.5 40.4822 12.5 75C12.5 109.518 40.4822 137.5 75 137.5Z" fill="url(#paint0_angular_636_12825)"/>
<path fill-rule="evenodd" clip-rule="evenodd" d="M142.385 60.0052C145.809 59.5635 148.942 61.9807 149.384 65.4041C149.794 68.5865 150 71.792 150 75.0008C150 78.4526 147.202 81.2508 143.75 81.2508C140.298 81.2508 137.5 78.4526 137.5 75.0008C137.5 72.3268 137.328 69.6556 136.986 67.0035C136.545 63.5801 138.962 60.4469 142.385 60.0052Z" fill="#3AE180"/>
<defs>
<radialGradient id="paint0_angular_636_12825" cx="0" cy="0" r="1" gradientUnits="userSpaceOnUse" gradientTransform="translate(75 75) scale(75)">
<stop stop-color="#3AE180" stop-opacity="0"/>
<stop offset="1" stop-color="#3AE180"/>
</radialGradient>
</defs>
</svg>
